<svg width="257" height="313" viewBox="0 0 257 313" fill="none" xmlns="http://www.w3.org/2000/svg">
<path d="M148.95 223.466L114.838 224.456C79.0535 225.496 51.23 218.941 32.1419 204.973C15.3295 192.671 5.66997 174.813 4.20843 153.331C2.8206 132.936 9.03985 110.116 21.271 90.7227C31.9574 73.7789 45.2871 62.3225 58.6547 58.3516C66.3799 27.4644 93.629 5.0202 125.635 4.09051C157.625 3.16129 186.093 23.9678 195.577 54.33C209.433 57.4226 223.318 67.8402 234.5 83.7633C247.046 101.629 254.114 123.528 253.89 143.845C253.649 165.783 245.139 184.621 229.28 198.321C211.149 213.984 184.121 222.444 148.95 223.466Z" fill="#FDBF00"/>
<path d="M234.5 83.7634C223.318 67.8403 209.433 57.4221 195.577 54.3301C186.093 23.9679 157.624 3.16137 125.635 4.09058L131.894 223.961L148.95 223.466C184.122 222.444 211.149 213.984 229.28 198.321C245.139 184.621 253.649 165.784 253.89 143.845C254.114 123.529 247.046 101.63 234.5 83.7634Z" fill="#FF9100"/>
<path d="M188.293 128.25C191.667 124.639 191.505 118.95 187.931 115.541C184.357 112.132 178.724 112.296 175.35 115.906L147.107 146.126L136.569 77.8918C135.878 73.4172 132.001 70.1607 127.519 70.2909C123.038 70.4211 119.352 73.8973 118.917 78.4045L115.294 115.917L89.1436 90.9789C85.57 87.5702 79.9369 87.7339 76.5625 91.3443C73.1881 94.9548 73.3501 100.644 76.9242 104.053L113.107 138.559L97.3695 301.481C97.1215 304.05 97.9783 306.603 99.7225 308.49C101.467 310.377 103.929 311.415 106.483 311.341L162.233 309.721C164.788 309.647 167.186 308.468 168.82 306.483C170.454 304.498 171.165 301.9 170.771 299.349L150.574 168.579C150.666 168.489 150.762 168.407 150.851 168.312L188.293 128.25Z" fill="#803602"/>
<path d="M188.293 128.25C191.667 124.639 191.505 118.949 187.931 115.541C184.357 112.132 178.724 112.296 175.35 115.906L147.107 146.126L136.569 77.8915C135.878 73.417 132.001 70.1605 127.519 70.2906L134.358 310.531L162.233 309.721C164.788 309.647 167.186 308.468 168.82 306.483C170.454 304.498 171.165 301.9 170.771 299.349L150.574 168.579C150.666 168.489 150.762 168.407 150.851 168.312L188.293 128.25Z" fill="#6F2E01"/>
</svg>
