<svg width="506" height="425" viewBox="0 0 506 425" fill="none" xmlns="http://www.w3.org/2000/svg">
<path d="M434.613 307.129H152.387V157.715H434.613V307.129Z" fill="#53714C"/>
<path d="M427.976 177.867C425.933 179.884 423.693 181.453 421.313 182.598C420.168 184.978 418.599 187.218 416.582 189.261C403.317 202.701 375.879 202.513 355.292 188.84C334.709 175.166 328.772 153.189 342.037 139.748C343.781 137.981 345.775 136.448 347.964 135.151C358.619 128.837 367.552 119.908 373.865 109.249C375.162 107.061 376.696 105.07 378.463 103.322C391.903 90.0604 413.881 95.9942 427.554 116.578C441.228 137.164 441.416 164.602 427.976 177.867ZM334.372 200.5C339.261 176.275 327.916 156.538 309.035 156.412C306.548 156.395 304.058 156.72 301.59 157.352C299.272 157.945 296.924 158.422 294.567 158.785C298.231 148.96 296.785 138.892 289.437 131.448C287.689 129.677 285.699 128.147 283.51 126.85C272.852 120.537 263.922 111.604 257.609 100.945C256.312 98.7568 254.778 96.7659 253.011 95.0214C240.55 82.7227 220.751 86.9379 207.036 104.026C202.739 102.025 198.634 99.6193 194.779 96.8178C192.723 95.323 190.525 94.1006 188.21 93.1992C170.616 86.3478 152.789 100.508 148.392 124.826C143.998 149.145 154.699 174.411 172.296 181.262C174.967 182.306 177.649 182.857 180.285 182.968C182.279 184.696 184.611 186.132 187.269 187.209C196.621 190.993 208.145 189.598 218.903 184.326C222.418 186.771 226.543 188.535 231.046 189.618C231.056 193.1 231.422 196.745 232.181 200.496C233.822 208.632 237.087 216.232 241.416 222.743C240.673 222.675 239.921 222.623 239.156 222.62C236.669 222.604 234.179 222.928 231.714 223.557C219.714 226.631 207.084 226.631 195.084 223.557C192.62 222.928 190.126 222.604 187.642 222.62C168.758 222.743 157.416 242.48 162.302 266.705C167.192 290.93 186.459 310.466 205.343 310.342C208.213 310.323 210.907 309.85 213.401 308.977C215.891 309.85 218.585 310.323 221.455 310.342C240.339 310.466 259.609 290.93 264.496 266.705C266.364 257.454 265.855 248.865 263.471 241.764C267.314 243.32 271.276 244.16 275.219 244.134C278.092 244.118 280.786 243.641 283.276 242.769C285.77 243.641 288.464 244.118 291.334 244.134C310.215 244.26 329.485 224.724 334.372 200.5ZM396.731 222.62C394.244 222.604 391.754 222.928 389.29 223.56C377.289 226.631 364.66 226.631 352.659 223.56C350.195 222.928 347.702 222.604 345.218 222.62C326.333 222.746 314.991 242.484 319.878 266.708C324.764 290.93 344.034 310.466 362.919 310.342C365.788 310.323 368.483 309.85 370.976 308.977C373.466 309.85 376.161 310.326 379.03 310.342C397.915 310.469 417.185 290.93 422.071 266.708C426.958 242.484 415.612 222.743 396.731 222.62Z" fill="#74956A"/>
<path d="M408.767 114.752C398.365 113.397 388.301 105.699 385.457 99.1458C389.883 93.5427 399.341 90.4072 409.74 91.7626C419.727 93.0629 419.899 97.5407 433.148 99.6451C433.906 99.7651 434.24 100.67 433.738 101.253C428.728 107.041 418.375 116.003 408.767 114.752Z" fill="#53714C"/>
<path d="M417.931 105.767C405.697 107.855 393.343 105.65 383.301 99.3143C383.171 99.6418 383.051 99.9693 382.909 100.29C381.933 102.511 381.625 104.947 381.774 107.365C381.968 110.498 380.435 113.643 377.471 115.339C373.778 117.453 369.008 116.49 366.43 113.105C363.389 109.113 364.407 103.455 368.528 100.747C369.118 100.358 369.741 100.054 370.376 99.8266C377.653 97.2488 381.693 89.3372 379.63 81.8989C378.969 79.5157 377.935 77.194 376.505 75.0183C375.733 73.8478 376.103 72.259 377.335 71.5521C378.483 70.8939 379.935 71.3219 380.655 72.4276C385.123 79.2854 386.339 87.3365 384.702 94.7651C393.965 101.023 405.616 103.244 417.185 101.263C418.252 101.081 419.299 101.678 419.691 102.687C420.217 104.039 419.361 105.524 417.931 105.767Z" fill="#4C6645"/>
<path d="M383.985 172.604C361.647 187.439 331.872 187.646 317.481 173.062C315.293 170.844 313.587 168.412 312.345 165.831C309.764 164.589 307.332 162.887 305.115 160.698C290.533 146.305 290.737 116.529 305.575 94.1913C320.409 71.857 344.258 65.4141 358.843 79.8076C360.762 81.7012 362.426 83.8639 363.833 86.2374C370.684 97.8034 380.373 107.492 391.939 114.347C394.316 115.751 396.475 117.414 398.369 119.334C412.762 133.918 406.323 157.767 383.985 172.604Z" fill="#BDB418"/>
<path d="M383.985 172.605C376.595 177.514 368.389 180.818 360.198 182.52C353.697 179.346 347.549 175.02 342.079 169.55C317.624 145.095 315.97 107.1 338.383 84.6876C342.455 80.615 347.043 77.3401 351.969 74.8499C354.417 76.0755 356.729 77.7227 358.843 79.8076C360.762 81.7012 362.426 83.864 363.833 86.2375C370.681 97.8035 380.373 107.492 391.939 114.347C394.312 115.751 396.475 117.414 398.369 119.334C412.762 133.918 406.323 157.767 383.985 172.605Z" fill="#CEC531"/>
<path d="M396.436 128.124C400.172 130.663 399.76 137.783 395.515 144.028C391.271 150.274 384.805 153.279 381.07 150.74C377.335 148.202 377.743 141.084 381.988 134.836C386.232 128.591 392.701 125.588 396.436 128.124Z" fill="#DED980"/>
<path d="M266.467 54.4967C259.814 62.6061 247.956 67.0743 240.894 66.0205C238.478 59.2988 240.819 49.6167 247.473 41.5072C253.861 33.7188 257.752 35.9431 266.545 25.8136C267.051 25.2332 267.995 25.4277 268.222 26.1638C270.485 33.4788 272.612 47.0065 266.467 54.4967Z" fill="#53714C"/>
<path d="M263.692 41.9677C258.99 53.4526 250.586 62.7683 239.895 67.9368C240.103 68.2189 240.317 68.4977 240.514 68.7896C241.883 70.7902 243.786 72.3433 245.92 73.4944C248.679 74.986 250.537 77.9529 250.407 81.364C250.248 85.6181 246.909 89.1524 242.671 89.5513C237.674 90.0182 233.41 86.1628 233.293 81.231C233.277 80.5274 233.345 79.8367 233.491 79.1785C235.155 71.6397 230.576 64.0264 223.174 61.8409C220.8 61.1405 218.284 60.7903 215.68 60.852C214.279 60.8876 213.125 59.7333 213.177 58.3098C213.229 56.9934 214.36 55.985 215.677 55.959C223.861 55.7969 231.335 59.0232 236.773 64.3441C246.986 59.7917 255.034 51.0823 259.473 40.2167C259.885 39.2148 260.942 38.6409 262.009 38.8419C263.432 39.111 264.243 40.622 263.692 41.9677Z" fill="#4C6645"/>
<path d="M308.96 94.7002C314.359 120.964 303.403 148.652 284.492 156.541C281.62 157.741 278.727 158.412 275.867 158.597C273.75 160.526 271.26 162.144 268.4 163.379C249.597 171.518 222.061 160.182 206.9 138.065C191.738 115.948 194.695 91.4221 213.498 83.2867C215.972 82.2134 218.598 81.4806 221.329 81.0656C234.616 79.039 247.23 73.6792 257.91 65.521C260.106 63.8447 262.456 62.4634 264.943 61.4225C283.854 53.5336 303.561 68.4328 308.96 94.7002Z" fill="#BC003B"/>
<path d="M308.96 94.7002C310.747 103.39 310.74 112.236 309.249 120.468C303.873 125.306 297.563 129.388 290.442 132.414C258.614 145.938 222.762 133.253 210.366 104.084C208.112 98.7825 206.796 93.3027 206.329 87.8002C208.381 85.9909 210.774 84.4637 213.498 83.2834C215.975 82.2134 218.598 81.4806 221.329 81.0623C234.616 79.039 247.23 73.6792 257.91 65.5178C260.106 63.8414 262.456 62.4601 264.943 61.4225C283.854 53.5336 303.562 68.4328 308.96 94.7002Z" fill="#E30048"/>
<path d="M271.402 70.3978C273.941 66.6624 281.062 67.0742 287.307 71.3187C293.552 75.5631 296.558 82.0319 294.019 85.7672C291.48 89.5026 284.359 89.0908 278.114 84.8463C271.869 80.6019 268.864 74.1331 271.402 70.3978Z" fill="#FD0464"/>
<path d="M455.365 182.617V149.414C455.365 144.829 451.649 141.113 447.064 141.113H139.936C135.351 141.113 131.635 144.829 131.635 149.414V182.617C131.635 187.202 135.351 190.918 139.936 190.918V207.52C135.351 207.52 131.635 211.235 131.635 215.82V249.023C131.635 253.608 135.351 257.324 139.936 257.324V273.926C135.351 273.926 131.635 277.642 131.635 282.227V315.43C131.635 320.015 135.351 323.73 139.936 323.73H447.064C451.649 323.73 455.365 320.015 455.365 315.43V282.227C455.365 277.642 451.649 273.926 447.064 273.926V257.324C451.649 257.324 455.365 253.608 455.365 249.023V215.82C455.365 211.235 451.649 207.52 447.064 207.52V190.918C451.649 190.918 455.365 187.202 455.365 182.617ZM422.162 273.926H164.838V257.324H422.162V273.926ZM422.162 207.52H164.838V190.918H422.162V207.52Z" fill="#CE9047"/>
<path d="M455.365 282.227V315.43C455.365 320.015 451.649 323.73 447.064 323.73H155.707C151.122 323.73 147.406 320.015 147.406 315.43V282.227C147.406 277.642 151.122 273.926 155.707 273.926H447.064C451.649 273.926 455.365 277.642 455.365 282.227ZM447.064 141.113H155.707C151.122 141.113 147.406 144.829 147.406 149.414V182.617C147.406 187.202 151.122 190.918 155.707 190.918H447.064C451.649 190.918 455.365 187.202 455.365 182.617V149.414C455.365 144.829 451.649 141.113 447.064 141.113ZM447.064 207.52H155.707C151.122 207.52 147.406 211.235 147.406 215.82V249.023C147.406 253.608 151.122 257.324 155.707 257.324H447.064C451.649 257.324 455.365 253.608 455.365 249.023V215.82C455.365 211.235 451.649 207.52 447.064 207.52Z" fill="#DCA050"/>
<path d="M155.707 166.016C155.707 170.601 151.991 174.316 147.406 174.316C142.821 174.316 139.105 170.601 139.105 166.016C139.105 161.431 142.821 157.715 147.406 157.715C151.991 157.715 155.707 161.431 155.707 166.016ZM147.406 224.121C142.821 224.121 139.105 227.837 139.105 232.422C139.105 237.007 142.821 240.723 147.406 240.723C151.991 240.723 155.707 237.007 155.707 232.422C155.707 227.837 151.991 224.121 147.406 224.121ZM437.934 174.316C442.518 174.316 446.234 170.601 446.234 166.016C446.234 161.431 442.518 157.715 437.934 157.715C433.349 157.715 429.633 161.431 429.633 166.016C429.633 170.601 433.349 174.316 437.934 174.316ZM437.934 224.121C433.349 224.121 429.633 227.837 429.633 232.422C429.633 237.007 433.349 240.723 437.934 240.723C442.518 240.723 446.234 237.007 446.234 232.422C446.234 227.837 442.518 224.121 437.934 224.121ZM437.934 290.527C433.349 290.527 429.633 294.243 429.633 298.828C429.633 303.413 433.349 307.129 437.934 307.129C442.518 307.129 446.234 303.413 446.234 298.828C446.234 294.243 442.518 290.527 437.934 290.527Z" fill="#FFDF8E"/>
<path d="M223.786 287.693C228.394 283.086 238.371 285.596 246.072 293.296C253.773 300.997 256.283 310.975 251.675 315.579C247.071 320.186 237.094 317.677 229.393 309.976C221.689 302.275 219.182 292.298 223.786 287.693Z" fill="#FDF385"/>
<path d="M127.724 220.25C114.349 226.705 96.1231 226.008 87.3586 221.055C87.9455 211.588 96.4992 200.969 109.875 194.515C122.718 188.314 126.622 193.052 143.976 185.239C144.971 184.79 146.113 185.52 145.999 186.537C144.88 196.653 140.085 214.286 127.724 220.25Z" fill="#53714C"/>
<path d="M131.1 203.497C118.409 215.091 102.028 222.114 84.9559 222.88C85.0759 223.331 85.2024 223.783 85.2996 224.241C85.9871 227.396 87.6342 230.283 89.81 232.798C92.6244 236.053 93.4156 240.644 91.3242 244.748C88.7205 249.86 82.3036 252.447 76.4671 250.733C69.5865 248.711 66.1106 241.784 68.7273 235.697C69.1034 234.826 69.5833 234.022 70.1475 233.292C76.5936 224.944 74.8134 213.26 66.237 206.745C63.4874 204.658 60.3487 202.923 56.8662 201.649C54.9888 200.961 54.1101 198.953 54.9823 197.243C55.7897 195.657 57.8552 195.014 59.6159 195.666C70.5463 199.716 78.6331 207.541 82.8451 216.865C98.9343 216.607 114.498 210.143 126.496 199.172C127.601 198.158 129.329 198.008 130.626 198.804C132.364 199.875 132.585 202.142 131.1 203.497Z" fill="#4C6645"/>
<path d="M161.385 291.446C153.752 326.346 123.655 354.493 94.1646 354.314C89.6803 354.287 85.4715 353.605 81.5805 352.349C77.6863 353.605 73.4775 354.287 68.9964 354.314C39.5027 354.493 9.40588 326.346 1.77305 291.446C-5.85978 256.542 11.8572 228.105 41.3509 227.926C45.2322 227.902 49.1232 228.368 52.972 229.278C71.7169 233.705 91.441 233.705 110.186 229.278C114.035 228.368 117.926 227.902 121.81 227.926C151.301 228.105 169.018 256.542 161.385 291.446Z" fill="#E8CE00"/>
<path d="M161.385 291.446C158.859 302.992 153.872 313.799 147.264 323.086C137.42 326.209 126.758 327.92 115.624 327.92C65.8448 327.92 25.4919 293.803 25.4919 251.717C25.4919 244.069 26.8279 236.687 29.3084 229.723C33.047 228.575 37.0741 227.953 41.351 227.926C45.2322 227.902 49.1232 228.368 52.9721 229.278C71.7169 233.705 91.441 233.705 110.186 229.278C114.035 228.368 117.926 227.902 121.81 227.926C151.301 228.105 169.018 256.542 161.385 291.446Z" fill="#FDE803"/>
</svg>
