<svg width="65" height="74" viewBox="0 0 65 74" fill="none" xmlns="http://www.w3.org/2000/svg">
<path d="M30.5536 5.00652C30.5536 5.00652 77.5375 21.6344 34.3153 68.1973C32.5117 70.1406 29.508 70.281 27.5125 68.5398C17.9178 60.1702 -4.78603 34.766 30.5536 5.00652Z" fill="url(#paint0_linear)"/>
<path d="M27.5128 68.5405C28.6192 69.5059 30.0352 69.8904 31.3847 69.7122C34.6994 39.1366 30.5539 5.00708 30.5539 5.00708C-4.78598 34.766 17.9178 60.1703 27.5128 68.5405Z" fill="url(#paint1_linear)"/>
<path d="M26.774 50.0156C27.0599 49.5895 27.3774 49.1838 27.6855 48.7783C27.9928 48.3725 28.2979 47.9683 28.6242 47.5823C28.9411 47.1892 29.3176 46.8406 29.6813 46.4908C30.0472 46.143 30.343 45.7515 30.5835 45.3101C30.8157 44.8663 31.0302 44.411 31.2103 43.9093C31.2625 44.6038 31.3147 45.2983 31.3668 45.9943L31.5816 49.3932C31.659 50.5287 31.6665 51.6562 31.727 52.7928C31.8076 55.0627 31.8024 57.3196 31.6436 59.5854L32.1564 59.6852L32.5423 57.9971L32.7353 57.1468C32.792 56.8625 32.83 56.5786 32.878 56.2943C33.0418 55.1569 33.2563 54.0093 33.3629 52.8667C33.6412 50.5762 33.8041 48.2837 33.9797 45.9867C34.0016 45.5442 34.0243 45.1 34.0469 44.6573C34.262 44.9561 34.4983 45.2358 34.7813 45.4813C35.1612 45.8125 35.5539 46.1414 35.8897 46.5183C36.2346 46.8877 36.5587 47.2769 36.8848 47.6674C37.2125 48.0565 37.5492 48.4462 37.8552 48.8584C38.5105 49.6593 39.0896 50.5194 39.7094 51.3872L39.9779 51.2757C39.7775 50.2198 39.4948 49.17 39.1251 48.148C38.9451 47.6338 38.731 47.1355 38.519 46.6297C38.2849 46.139 38.048 45.6451 37.7865 45.1652C37.5288 44.6823 37.2939 44.1773 37.0368 43.6817C36.7698 43.1939 36.4272 42.7598 36 42.4053C35.9154 42.3369 35.8288 42.2694 35.7413 42.203C34.7868 41.4847 34.2567 40.3267 34.2933 39.1251L34.2936 39.103C34.3558 37.0109 34.3722 34.9235 34.3996 32.8329C34.7119 33.2445 35.0421 33.6063 35.3857 33.9514C35.7456 34.3006 36.144 34.5853 36.5952 34.8083C37.0451 35.0333 37.5071 35.2526 37.9253 35.5326C38.3505 35.8031 38.7609 36.0975 39.1732 36.3932C39.5872 36.6875 40.0097 36.9796 40.408 37.301C41.241 37.9108 42.0143 38.597 42.83 39.2807L43.0624 39.1047C42.6064 38.1336 42.0728 37.1885 41.4615 36.2923C41.16 35.8402 40.8284 35.4117 40.4986 34.9752C40.1499 34.5598 39.7984 34.1412 39.4264 33.7429C39.057 33.3406 38.7051 32.9104 38.3324 32.4964C37.9533 32.0916 37.5142 31.7574 37.0125 31.5227C36.7897 31.4217 36.5611 31.3275 36.326 31.2456C35.1817 30.8457 34.4514 29.7082 34.4828 28.4853C34.5099 27.4348 34.5394 26.3847 34.5587 25.3345C34.5855 24.0037 34.5458 22.6768 34.4546 21.3533C34.7311 21.7024 35.0207 22.0168 35.3202 22.3182C35.6801 22.6675 36.0787 22.9528 36.5297 23.1752C36.9796 23.4002 37.4416 23.6194 37.8598 23.8995C38.285 24.17 38.6956 24.465 39.1077 24.76C39.5217 25.0543 39.9436 25.3467 40.3425 25.6678C41.1756 26.2777 41.9488 26.9639 42.7645 27.6476L42.9969 27.4715C42.541 26.5004 42.0073 25.5554 41.3957 24.66C41.0939 24.2073 40.7629 23.7786 40.4333 23.3427C40.0847 22.9273 39.7332 22.5087 39.3609 22.1098C38.9915 21.7075 38.6393 21.2782 38.2671 20.8639C37.8881 20.459 37.4483 20.1251 36.9473 19.8901C36.4457 19.6627 35.916 19.4727 35.3488 19.3709C34.6987 19.2542 34.1881 18.7518 34.0852 18.0925C33.8191 16.3866 33.3135 13.3068 32.9331 11.6877C32.3871 9.43642 31.7545 7.19454 30.8139 4.9841L30.2932 5.03033C29.7407 7.36371 29.4527 9.66926 29.2508 11.9657C29.0555 14.2623 28.9632 16.547 28.9595 18.8252C28.9595 18.8655 28.9591 18.9052 28.9591 18.9454C28.9575 19.6801 28.4492 20.289 27.7438 20.4671C27.2242 20.5985 26.7404 20.8027 26.2832 21.0381C25.7938 21.2973 25.3707 21.6524 25.0118 22.0755C24.6596 22.5075 24.3291 22.9539 23.9792 23.374C23.6263 23.7902 23.2957 24.2256 22.9676 24.6585C22.659 25.1103 22.3494 25.5544 22.0701 26.021C21.5023 26.9461 21.0148 27.9166 20.6064 28.9087L20.8473 29.0731C21.6287 28.35 22.368 27.6264 23.1702 26.9766C23.553 26.6363 23.9607 26.3229 24.3594 26.0089C24.7576 25.6936 25.1534 25.3794 25.565 25.0877C25.9693 24.7874 26.4204 24.5458 26.8585 24.2994C27.2987 24.0543 27.6826 23.7501 28.025 23.3837C28.3897 22.98 28.7348 22.5517 29.0557 22.0611C29.1299 23.252 29.2427 24.4399 29.394 25.6262C29.5242 26.5733 29.6842 27.8511 29.8215 28.9737C29.9681 30.1679 29.3579 31.3488 28.2745 31.849C27.745 32.0936 27.2546 32.4154 26.7794 32.6599C26.2894 32.9194 25.8671 33.2748 25.508 33.6973C25.1561 34.13 24.8256 34.5763 24.4757 34.9964C24.1233 35.4124 23.7921 35.8481 23.4639 36.2803C23.1552 36.7321 22.8459 37.1768 22.5665 37.6434C21.9985 38.5679 21.511 39.5384 21.1029 40.5311L21.3435 40.6949C22.1252 39.9724 22.8644 39.2488 23.667 38.5981C24.0499 38.2578 24.4572 37.9453 24.8563 37.6304C25.2545 37.3151 25.6496 37.0012 26.0612 36.7095C26.4655 36.4092 26.9166 36.1676 27.3547 35.9212C27.7949 35.6761 28.1788 35.3719 28.5212 35.0055C29.1633 34.2942 29.7499 33.5148 30.2325 32.4146C30.4328 34.6744 30.6542 36.9362 30.8202 39.1973L30.8283 39.2853C30.9602 40.6584 30.3678 42.0301 29.2206 42.7781C28.8963 42.9899 28.5969 43.2285 28.3158 43.4798C27.906 43.8549 27.5852 44.3052 27.3422 44.8055C27.1086 45.3128 26.899 45.829 26.6645 46.3236C26.4263 46.816 26.2138 47.3218 26.0031 47.8231C25.8163 48.3385 25.6267 48.8471 25.4719 49.3696C25.1508 50.4084 24.92 51.4707 24.7705 52.5354L25.0441 52.6333C25.6217 51.7355 26.158 50.8484 26.774 50.0156Z" fill="url(#paint2_linear)"/>
<defs>
<linearGradient id="paint0_linear" x1="36.6442" y1="37.4815" x2="-2.34752" y2="36.8476" gradientUnits="userSpaceOnUse">
<stop stop-color="#FFE548"/>
<stop offset="1" stop-color="#FFB211"/>
</linearGradient>
<linearGradient id="paint1_linear" x1="15.4029" y1="39.3449" x2="46.0056" y2="35.5198" gradientUnits="userSpaceOnUse">
<stop stop-color="#FFB211" stop-opacity="0"/>
<stop offset="0.214" stop-color="#FF951D" stop-opacity="0.215686"/>
<stop offset="0.5597" stop-color="#FF6D2F" stop-opacity="0.560784"/>
<stop offset="0.8338" stop-color="#FF543A" stop-opacity="0.835294"/>
<stop offset="1" stop-color="#FF4B3E"/>
</linearGradient>
<linearGradient id="paint2_linear" x1="38.5398" y1="33.1786" x2="22.6145" y2="31.3108" gradientUnits="userSpaceOnUse">
<stop stop-color="#FFB211"/>
<stop offset="1" stop-color="#FF4B3E"/>
</linearGradient>
</defs>
</svg>
