<svg width="345" height="345" viewBox="0 0 345 345" fill="none" xmlns="http://www.w3.org/2000/svg">
<path d="M326.989 162.077C326.989 137.955 312.319 117.26 291.416 108.425C295.107 101.289 297.206 93.195 297.206 84.6064C297.206 55.9276 273.957 32.6793 245.278 32.6793C237.108 32.6793 229.381 34.572 222.504 37.9338C216.393 16.0553 196.328 0 172.5 0C148.672 0 128.607 16.0553 122.496 37.9338C115.619 34.5714 107.892 32.6793 99.721 32.6793C71.0422 32.6793 47.7939 55.9276 47.7939 84.6064C47.7939 93.195 49.8915 101.289 53.5834 108.425C32.6799 117.261 18.0107 137.955 18.0107 162.077C18.0107 193.338 42.6566 218.81 73.5738 220.205C77.8843 235.817 94.5298 247.456 114.423 247.456C125.697 247.456 135.924 243.712 143.461 237.631C150.999 243.712 161.226 247.456 172.5 247.456C183.773 247.456 194.001 243.712 201.538 237.631C209.076 243.712 219.303 247.456 230.577 247.456C250.47 247.456 267.115 235.817 271.426 220.204C302.343 218.81 326.989 193.338 326.989 162.077Z" fill="#129B12"/>
<path d="M169.385 0.103096C168.745 0.141504 168.108 0.187324 167.476 0.249316C167.282 0.268183 167.089 0.289746 166.896 0.310634C166.216 0.384081 165.54 0.468984 164.868 0.56871C164.742 0.586903 164.616 0.605097 164.491 0.624637C163.691 0.749295 162.896 0.888104 162.109 1.04847C162.108 1.04847 162.107 1.04915 162.105 1.04915C175.737 3.82127 188.5 13.3155 196.586 25.2827C202.312 33.7574 212.095 38.6426 222.3 37.9486C222.368 37.9439 222.435 37.9391 222.503 37.9344C216.393 16.0553 196.328 0 172.5 0C171.664 0 170.835 0.0242578 170.009 0.0633397C169.8 0.0734471 169.593 0.0909666 169.385 0.103096Z" fill="#097C09"/>
<path d="M291.416 108.425C295.108 101.289 297.206 93.1949 297.206 84.6063C297.206 55.9276 273.957 32.6792 245.278 32.6792C241.719 32.6792 238.245 33.039 234.888 33.7223C258.584 38.5381 276.418 59.4887 276.418 84.6063C276.418 93.1949 274.32 101.289 270.628 108.425C291.532 117.261 306.201 137.955 306.201 162.077C306.201 193.338 281.555 218.81 250.639 220.204C247.106 233.001 235.284 243.122 220.182 246.359C223.506 247.073 226.988 247.455 230.578 247.455C250.47 247.455 267.116 235.816 271.426 220.203C302.343 218.809 326.989 193.337 326.989 162.076C326.989 137.955 312.321 117.26 291.416 108.425Z" fill="#097C09"/>
<path d="M135.318 229.03C130.635 236.973 111.227 245.855 104.03 246.36C104.822 246.53 105.624 246.678 106.434 246.81C106.498 246.821 106.563 246.832 106.628 246.842C107.448 246.972 108.277 247.084 109.113 247.174C109.135 247.176 109.157 247.177 109.178 247.18C109.931 247.259 110.692 247.317 111.456 247.362C111.642 247.373 111.829 247.383 112.016 247.393C112.813 247.431 113.615 247.457 114.423 247.457C124.706 247.457 134.11 244.335 141.405 239.174L142.684 238.244L136.17 227.558L135.318 229.03Z" fill="#009000"/>
<path d="M198.464 242.29L220.711 207.184C222.471 204.407 221.938 200.761 219.458 198.604C216.809 196.3 212.826 196.45 210.359 198.948L193.975 215.536C191.801 217.736 188.079 215.906 188.492 212.842L193.31 177.146C193.825 173.332 191.006 169.878 187.166 169.618L182.652 169.313C179.26 169.084 176.241 171.449 175.651 174.797L167.051 223.659C166.573 226.376 163.122 227.272 161.382 225.132L134.447 192.008C132.584 189.715 129.431 188.927 126.708 190.072L121.992 192.053C118.259 193.623 116.782 198.136 118.865 201.609L146.543 247.744C150.551 254.425 152.204 262.263 151.202 269.99C147.615 297.655 143.159 323.746 124.925 345H220.072C200.552 322.248 195.737 293.953 193.154 264.117C192.493 256.455 194.348 248.785 198.464 242.29Z" fill="#BF6101"/>
<path d="M220.711 207.184C222.471 204.407 221.939 200.761 219.458 198.604C216.809 196.3 212.826 196.45 210.359 198.948L203.042 206.355L193.975 215.535C191.801 217.735 188.079 215.906 188.492 212.842L193.31 177.145C193.812 173.428 191.143 170.06 187.452 169.652L173.905 253.857C173.677 254.944 173.499 256.042 173.375 257.148C173.117 259.449 173.083 261.782 173.284 264.116C175.869 293.952 180.684 322.247 200.203 344.999H220.073C200.554 322.247 195.739 293.952 193.155 264.117C192.492 256.455 194.348 248.786 198.464 242.29L220.711 207.184Z" fill="#9A4D01"/>
<path d="M162.617 40.7666C148.048 40.7666 135.507 49.4131 129.822 61.8506C123.949 57.7005 116.786 55.2539 109.047 55.2539C89.1379 55.2539 72.9977 71.394 72.9977 91.3036C72.9977 97.8727 74.7638 104.026 77.8338 109.33C60.5461 111.988 47.3067 126.927 47.3067 144.958C47.3067 164.868 63.4469 181.008 83.3565 181.008C103.266 181.008 198.666 96.7259 198.666 76.8163C198.666 56.9068 182.528 40.7666 162.617 40.7666Z" fill="#28A528"/>
<g clip-path="url(#clip0)">
<path d="M59.4789 174.747C43.1182 203.084 18.2433 160 50.9646 160C18.2433 160 43.1181 116.916 59.4789 145.253C43.1182 116.916 92.8678 116.916 76.5072 145.253C92.8678 116.916 117.743 160 85.0215 160C117.743 160 92.8678 203.084 76.5072 174.747C92.8678 203.084 43.1182 203.084 59.4789 174.747Z" fill="#FF728B"/>
<path d="M85.0215 159.979L68.4279 159.756L68.4362 159.742L68.4228 159.743L76.5074 145.253C92.868 116.916 43.1184 116.916 59.4791 145.253L67.5649 159.745L67.5493 159.744L67.5576 159.758L50.965 160.057C18.2441 160.165 43.2616 203.167 59.528 174.775L67.9867 160.501L67.9932 160.513L68.0008 160.499L76.5254 174.737C92.9202 203.054 117.743 159.94 85.0215 159.979Z" fill="#FF3F62"/>
<path d="M67.9934 182.335C67.3848 182.335 66.8913 182.828 66.8913 183.437V188.065C66.8913 188.674 67.3848 189.167 67.9934 189.167C68.602 189.167 69.0955 188.674 69.0955 188.065V183.437C69.0953 182.828 68.602 182.335 67.9934 182.335Z" fill="#FF0C38"/>
<path d="M50.4959 146.889L53.3336 149.244C53.5393 149.415 53.7888 149.498 54.0369 149.498C54.3534 149.498 54.6676 149.363 54.8854 149.1C55.2742 148.631 55.2097 147.937 54.7413 147.548L51.9036 145.193C51.4352 144.804 50.7405 144.869 50.3518 145.337C49.9631 145.805 50.0277 146.5 50.4959 146.889Z" fill="#FF0C38"/>
<path d="M48.7733 169.168L44.6997 171.374C44.1643 171.664 43.9656 172.333 44.2553 172.868C44.4548 173.236 44.834 173.445 45.2253 173.445C45.4025 173.445 45.5822 173.402 45.749 173.312L49.8227 171.106C50.3579 170.816 50.5567 170.148 50.267 169.612C49.9773 169.077 49.3085 168.878 48.7733 169.168Z" fill="#FF0C38"/>
<path d="M87.8355 176.193L84.8988 173.574C84.4446 173.169 83.7478 173.209 83.3429 173.663C82.9379 174.118 82.9777 174.814 83.4321 175.219L86.3688 177.838C86.5789 178.025 86.8407 178.117 87.1019 178.117C87.405 178.117 87.7071 177.993 87.9248 177.748C88.3297 177.294 88.2899 176.598 87.8355 176.193Z" fill="#FF0C38"/>
<path d="M87.47 165.72L70.5274 159.719L87.6903 148.883C88.2049 148.558 88.3587 147.877 88.0339 147.362C87.709 146.848 87.0282 146.694 86.5136 147.019L69.1207 158.001V141.559C69.1207 140.95 68.6273 140.457 68.0187 140.457C67.41 140.457 66.9166 140.95 66.9166 141.559V157.653L57.6009 149.922C57.1324 149.533 56.4376 149.597 56.0491 150.066C55.6602 150.534 55.7249 151.229 56.1932 151.617L62.5022 156.854L47.5552 151.5C46.9827 151.295 46.3514 151.593 46.1461 152.166C45.9408 152.739 46.2389 153.37 46.812 153.575L65.3246 160.206L53.5127 166.602C52.9774 166.891 52.7787 167.56 53.0684 168.096C53.2679 168.464 53.647 168.673 54.0384 168.673C54.2156 168.673 54.3955 168.63 54.5621 168.54L66.8848 161.867L66.8909 178.809C66.891 179.417 67.3844 179.91 67.9929 179.91H67.9932C68.602 179.91 69.0951 179.417 69.095 178.808L69.0891 162.431L80.5996 172.694C80.8097 172.882 81.0715 172.974 81.3326 172.974C81.636 172.974 81.9379 172.849 82.1557 172.605C82.5607 172.151 82.5209 171.454 82.0666 171.049L72.9415 162.913L86.7341 167.798C86.8557 167.841 86.9799 167.862 87.1019 167.862C87.5556 167.862 87.9807 167.579 88.1407 167.127C88.3441 166.553 88.0437 165.923 87.47 165.72Z" fill="#FF0C38"/>
<path d="M68.0185 137.518C68.6272 137.518 69.1206 137.025 69.1206 136.416V131.762C69.1206 131.153 68.6272 130.66 68.0185 130.66C67.4099 130.66 66.9165 131.153 66.9165 131.762V136.416C66.9166 137.025 67.4099 137.518 68.0185 137.518Z" fill="#FF0C38"/>
<path d="M68.0193 168.596C72.7667 168.596 76.6153 164.747 76.6153 160C76.6153 155.252 72.7667 151.404 68.0193 151.404C63.2718 151.404 59.4233 155.252 59.4233 160C59.4233 164.747 63.2718 168.596 68.0193 168.596Z" fill="#FFEB99"/>
<path d="M63.7803 160C63.7803 156.005 66.5053 152.648 70.1975 151.683C69.5015 151.501 68.7715 151.404 68.0186 151.404C63.2711 151.404 59.4226 155.253 59.4226 160C59.4226 164.748 63.2711 168.596 68.0186 168.596C68.7715 168.596 69.5015 168.499 70.1975 168.317C66.5053 167.352 63.7803 163.995 63.7803 160Z" fill="#FFDA44"/>
</g>
<g clip-path="url(#clip1)">
<path d="M153.479 69.7469C137.118 98.0845 112.243 55 144.965 55C112.243 55 137.118 11.9155 153.479 40.253C137.118 11.9157 186.868 11.9157 170.507 40.253C186.868 11.9155 211.743 55 179.021 55C211.743 55 186.868 98.0845 170.507 69.7469C186.868 98.0845 137.118 98.0845 153.479 69.7469Z" fill="#FF728B"/>
<path d="M179.022 54.9792L162.428 54.756L162.436 54.7422L162.423 54.7425L170.507 40.253C186.868 11.9156 137.118 11.9156 153.479 40.253L161.565 54.7446L161.549 54.7445L161.558 54.7583L144.965 55.0567C112.244 55.1652 137.262 98.1668 153.528 69.7754L161.987 55.5009L161.993 55.5126L162.001 55.4989L170.525 69.7367C186.92 98.0541 211.743 54.9395 179.022 54.9792Z" fill="#FF3F62"/>
<path d="M161.993 77.3347C161.385 77.3347 160.891 77.8282 160.891 78.4368V83.0653C160.891 83.674 161.385 84.1674 161.993 84.1674C162.602 84.1674 163.095 83.674 163.095 83.0653V78.4367C163.095 77.828 162.602 77.3347 161.993 77.3347Z" fill="#FF0C38"/>
<path d="M144.496 41.8888L147.334 44.244C147.539 44.4149 147.789 44.4981 148.037 44.4981C148.353 44.4981 148.668 44.3625 148.885 44.0999C149.274 43.6314 149.21 42.9367 148.741 42.5481L145.904 40.1929C145.435 39.804 144.74 39.8686 144.352 40.337C143.963 40.8053 144.028 41.5001 144.496 41.8888Z" fill="#FF0C38"/>
<path d="M142.773 64.1681L138.7 66.374C138.164 66.6638 137.966 67.3326 138.255 67.8679C138.455 68.2363 138.834 68.4453 139.225 68.4453C139.403 68.4453 139.582 68.4024 139.749 68.3121L143.823 66.1062C144.358 65.8164 144.557 65.1476 144.267 64.6124C143.977 64.0773 143.309 63.8782 142.773 64.1681Z" fill="#FF0C38"/>
<path d="M181.835 71.1926L178.899 68.5742C178.445 68.1692 177.748 68.209 177.343 68.6633C176.938 69.1177 176.978 69.8143 177.432 70.2192L180.369 72.8376C180.579 73.0249 180.841 73.1171 181.102 73.1171C181.405 73.1171 181.707 72.9926 181.925 72.7483C182.33 72.2944 182.29 71.5977 181.835 71.1926Z" fill="#FF0C38"/>
<path d="M181.47 60.7202L164.527 54.7192L181.69 43.8826C182.205 43.5577 182.359 42.8771 182.034 42.3623C181.709 41.8476 181.028 41.6939 180.514 42.0187L163.121 53.0006V36.5591C163.121 35.9505 162.627 35.457 162.019 35.457C161.41 35.457 160.917 35.9505 160.917 36.5591V52.6532L151.601 44.9215C151.132 44.5327 150.438 44.5973 150.049 45.0657C149.66 45.5341 149.725 46.2288 150.193 46.6175L156.502 51.8538L141.555 46.5002C140.983 46.2952 140.351 46.593 140.146 47.1661C139.941 47.739 140.239 48.3699 140.812 48.5751L159.325 55.2057L147.513 61.6017C146.977 61.8915 146.779 62.5603 147.068 63.0955C147.268 63.464 147.647 63.6729 148.038 63.6729C148.216 63.6729 148.395 63.63 148.562 63.5398L160.885 56.8671L160.891 73.8086C160.891 74.4171 161.384 74.9103 161.993 74.9103H161.993C162.602 74.9102 163.095 74.4166 163.095 73.8079L163.089 57.4313L174.6 67.6942C174.81 67.8816 175.072 67.9737 175.333 67.9737C175.636 67.9737 175.938 67.8492 176.156 67.6049C176.561 67.1506 176.521 66.4539 176.067 66.0491L166.942 57.9129L180.734 62.7982C180.856 62.8413 180.98 62.8617 181.102 62.8617C181.556 62.8617 181.981 62.5794 182.141 62.1273C182.344 61.5534 182.044 60.9234 181.47 60.7202Z" fill="#FF0C38"/>
<path d="M162.019 32.5183C162.627 32.5183 163.121 32.0249 163.121 31.4163V26.762C163.121 26.1534 162.627 25.6599 162.019 25.6599C161.41 25.6599 160.916 26.1534 160.916 26.762V31.4163C160.917 32.0249 161.41 32.5183 162.019 32.5183Z" fill="#FF0C38"/>
<path d="M162.019 63.5958C166.767 63.5958 170.615 59.7473 170.615 54.9998C170.615 50.2524 166.767 46.4038 162.019 46.4038C157.272 46.4038 153.423 50.2524 153.423 54.9998C153.423 59.7473 157.272 63.5958 162.019 63.5958Z" fill="#FFEB99"/>
<path d="M157.78 54.9999C157.78 51.0053 160.505 47.648 164.197 46.6833C163.501 46.5014 162.772 46.4041 162.019 46.4041C157.271 46.4041 153.423 50.2525 153.423 55.0001C153.423 59.7476 157.271 63.5961 162.019 63.5961C162.772 63.5961 163.501 63.4986 164.197 63.3168C160.505 62.3519 157.78 58.9945 157.78 54.9999Z" fill="#FFDA44"/>
</g>
<g clip-path="url(#clip2)">
<path d="M250.479 181.747C234.118 210.084 209.243 167 241.965 167C209.243 167 234.118 123.916 250.479 152.253C234.118 123.916 283.868 123.916 267.507 152.253C283.868 123.916 308.743 167 276.021 167C308.743 167 283.868 210.084 267.507 181.747C283.868 210.084 234.118 210.084 250.479 181.747Z" fill="#FF728B"/>
<path d="M276.022 166.979L259.428 166.756L259.436 166.742L259.423 166.743L267.507 152.253C283.868 123.916 234.118 123.916 250.479 152.253L258.565 166.745L258.549 166.744L258.558 166.758L241.965 167.057C209.244 167.165 234.262 210.167 250.528 181.775L258.987 167.501L258.993 167.513L259.001 167.499L267.525 181.737C283.92 210.054 308.743 166.94 276.022 166.979Z" fill="#FF3F62"/>
<path d="M258.993 189.335C258.385 189.335 257.891 189.828 257.891 190.437V195.065C257.891 195.674 258.385 196.167 258.993 196.167C259.602 196.167 260.095 195.674 260.095 195.065V190.437C260.095 189.828 259.602 189.335 258.993 189.335Z" fill="#FF0C38"/>
<path d="M241.496 153.889L244.334 156.244C244.539 156.415 244.789 156.498 245.037 156.498C245.353 156.498 245.668 156.363 245.885 156.1C246.274 155.631 246.21 154.937 245.741 154.548L242.904 152.193C242.435 151.804 241.74 151.869 241.352 152.337C240.963 152.805 241.028 153.5 241.496 153.889Z" fill="#FF0C38"/>
<path d="M239.773 176.168L235.7 178.374C235.164 178.664 234.966 179.333 235.255 179.868C235.455 180.236 235.834 180.445 236.225 180.445C236.403 180.445 236.582 180.402 236.749 180.312L240.823 178.106C241.358 177.816 241.557 177.148 241.267 176.612C240.977 176.077 240.309 175.878 239.773 176.168Z" fill="#FF0C38"/>
<path d="M278.835 183.193L275.899 180.574C275.445 180.169 274.748 180.209 274.343 180.663C273.938 181.118 273.978 181.814 274.432 182.219L277.369 184.838C277.579 185.025 277.841 185.117 278.102 185.117C278.405 185.117 278.707 184.993 278.925 184.748C279.33 184.294 279.29 183.598 278.835 183.193Z" fill="#FF0C38"/>
<path d="M278.47 172.72L261.527 166.719L278.69 155.883C279.205 155.558 279.359 154.877 279.034 154.362C278.709 153.848 278.028 153.694 277.514 154.019L260.121 165.001V148.559C260.121 147.95 259.627 147.457 259.019 147.457C258.41 147.457 257.917 147.95 257.917 148.559V164.653L248.601 156.922C248.132 156.533 247.438 156.597 247.049 157.066C246.66 157.534 246.725 158.229 247.193 158.617L253.502 163.854L238.555 158.5C237.983 158.295 237.351 158.593 237.146 159.166C236.941 159.739 237.239 160.37 237.812 160.575L256.325 167.206L244.513 173.602C243.977 173.891 243.779 174.56 244.068 175.096C244.268 175.464 244.647 175.673 245.038 175.673C245.216 175.673 245.395 175.63 245.562 175.54L257.885 168.867L257.891 185.809C257.891 186.417 258.384 186.91 258.993 186.91H258.993C259.602 186.91 260.095 186.417 260.095 185.808L260.089 169.431L271.6 179.694C271.81 179.882 272.072 179.974 272.333 179.974C272.636 179.974 272.938 179.849 273.156 179.605C273.561 179.151 273.521 178.454 273.067 178.049L263.942 169.913L277.734 174.798C277.856 174.841 277.98 174.862 278.102 174.862C278.556 174.862 278.981 174.579 279.141 174.127C279.344 173.553 279.044 172.923 278.47 172.72Z" fill="#FF0C38"/>
<path d="M259.019 144.518C259.627 144.518 260.121 144.025 260.121 143.416V138.762C260.121 138.153 259.627 137.66 259.019 137.66C258.41 137.66 257.916 138.153 257.916 138.762V143.416C257.917 144.025 258.41 144.518 259.019 144.518Z" fill="#FF0C38"/>
<path d="M259.019 175.596C263.767 175.596 267.615 171.747 267.615 167C267.615 162.252 263.767 158.404 259.019 158.404C254.272 158.404 250.423 162.252 250.423 167C250.423 171.747 254.272 175.596 259.019 175.596Z" fill="#FFEB99"/>
<path d="M254.78 167C254.78 163.005 257.505 159.648 261.197 158.683C260.501 158.501 259.772 158.404 259.019 158.404C254.271 158.404 250.423 162.253 250.423 167C250.423 171.748 254.271 175.596 259.019 175.596C259.772 175.596 260.501 175.499 261.197 175.317C257.505 174.352 254.78 170.995 254.78 167Z" fill="#FFDA44"/>
</g>
<defs>
<clipPath id="clip0">
<rect width="72" height="72" fill="white" transform="translate(32 124)"/>
</clipPath>
<clipPath id="clip1">
<rect width="72" height="72" fill="white" transform="translate(126 19)"/>
</clipPath>
<clipPath id="clip2">
<rect width="72" height="72" fill="white" transform="translate(223 131)"/>
</clipPath>
</defs>
</svg>
