<svg width="345" height="345" viewBox="0 0 345 345" fill="none" xmlns="http://www.w3.org/2000/svg">
<path d="M326.989 162.077C326.989 137.955 312.319 117.26 291.416 108.425C295.107 101.289 297.206 93.195 297.206 84.6064C297.206 55.9276 273.957 32.6793 245.278 32.6793C237.108 32.6793 229.381 34.572 222.504 37.9338C216.393 16.0553 196.328 0 172.5 0C148.672 0 128.607 16.0553 122.496 37.9338C115.619 34.5714 107.892 32.6793 99.721 32.6793C71.0422 32.6793 47.7939 55.9276 47.7939 84.6064C47.7939 93.195 49.8915 101.289 53.5834 108.425C32.6799 117.261 18.0107 137.955 18.0107 162.077C18.0107 193.338 42.6566 218.81 73.5738 220.205C77.8843 235.817 94.5298 247.456 114.423 247.456C125.697 247.456 135.924 243.712 143.461 237.631C150.999 243.712 161.226 247.456 172.5 247.456C183.773 247.456 194.001 243.712 201.538 237.631C209.076 243.712 219.303 247.456 230.577 247.456C250.47 247.456 267.115 235.817 271.426 220.204C302.343 218.81 326.989 193.338 326.989 162.077Z" fill="#129B12"/>
<path d="M169.385 0.103096C168.745 0.141504 168.108 0.187324 167.476 0.249316C167.282 0.268183 167.089 0.289746 166.896 0.310634C166.216 0.384081 165.54 0.468984 164.868 0.56871C164.742 0.586903 164.616 0.605097 164.491 0.624637C163.691 0.749295 162.896 0.888104 162.109 1.04847C162.108 1.04847 162.107 1.04915 162.105 1.04915C175.737 3.82127 188.5 13.3155 196.586 25.2827C202.312 33.7574 212.095 38.6426 222.3 37.9486C222.368 37.9439 222.435 37.9391 222.503 37.9344C216.393 16.0553 196.328 0 172.5 0C171.664 0 170.835 0.0242578 170.009 0.0633397C169.8 0.0734471 169.593 0.0909666 169.385 0.103096Z" fill="#097C09"/>
<path d="M291.416 108.425C295.108 101.289 297.206 93.1949 297.206 84.6063C297.206 55.9276 273.957 32.6792 245.278 32.6792C241.719 32.6792 238.245 33.039 234.888 33.7223C258.584 38.5381 276.418 59.4887 276.418 84.6063C276.418 93.1949 274.32 101.289 270.628 108.425C291.532 117.261 306.201 137.955 306.201 162.077C306.201 193.338 281.555 218.81 250.639 220.204C247.106 233.001 235.284 243.122 220.182 246.359C223.506 247.073 226.988 247.455 230.578 247.455C250.47 247.455 267.116 235.816 271.426 220.203C302.343 218.809 326.989 193.337 326.989 162.076C326.989 137.955 312.321 117.26 291.416 108.425Z" fill="#097C09"/>
<path d="M135.318 229.03C130.635 236.973 111.227 245.855 104.03 246.36C104.822 246.53 105.624 246.678 106.434 246.81C106.498 246.821 106.563 246.832 106.628 246.842C107.448 246.972 108.277 247.084 109.113 247.174C109.135 247.176 109.157 247.177 109.178 247.18C109.931 247.259 110.692 247.317 111.456 247.362C111.642 247.373 111.829 247.383 112.016 247.393C112.813 247.431 113.615 247.457 114.423 247.457C124.706 247.457 134.11 244.335 141.405 239.174L142.684 238.244L136.17 227.558L135.318 229.03Z" fill="#009000"/>
<path d="M198.464 242.29L220.711 207.184C222.471 204.407 221.938 200.761 219.458 198.604C216.809 196.3 212.826 196.45 210.359 198.948L193.975 215.536C191.801 217.736 188.079 215.906 188.492 212.842L193.31 177.146C193.825 173.332 191.006 169.878 187.166 169.618L182.652 169.313C179.26 169.084 176.241 171.449 175.651 174.797L167.051 223.659C166.573 226.376 163.122 227.272 161.382 225.132L134.447 192.008C132.584 189.715 129.431 188.927 126.708 190.072L121.992 192.053C118.259 193.623 116.782 198.136 118.865 201.609L146.543 247.744C150.551 254.425 152.204 262.263 151.202 269.99C147.615 297.655 143.159 323.746 124.925 345H220.072C200.552 322.248 195.737 293.953 193.154 264.117C192.493 256.455 194.348 248.785 198.464 242.29Z" fill="#BF6101"/>
<path d="M220.711 207.184C222.471 204.407 221.939 200.761 219.458 198.604C216.809 196.3 212.826 196.45 210.359 198.948L203.042 206.355L193.975 215.535C191.801 217.735 188.079 215.906 188.492 212.842L193.31 177.145C193.812 173.428 191.143 170.06 187.452 169.652L173.905 253.857C173.677 254.944 173.499 256.042 173.375 257.148C173.117 259.449 173.083 261.782 173.284 264.116C175.869 293.952 180.684 322.247 200.203 344.999H220.073C200.554 322.247 195.739 293.952 193.155 264.117C192.492 256.455 194.348 248.786 198.464 242.29L220.711 207.184Z" fill="#9A4D01"/>
<path d="M162.617 40.7666C148.048 40.7666 135.507 49.4131 129.822 61.8506C123.949 57.7005 116.786 55.2539 109.047 55.2539C89.1379 55.2539 72.9977 71.394 72.9977 91.3036C72.9977 97.8727 74.7638 104.026 77.8338 109.33C60.5461 111.988 47.3067 126.927 47.3067 144.958C47.3067 164.868 63.4469 181.008 83.3565 181.008C103.266 181.008 198.666 96.7259 198.666 76.8163C198.666 56.9068 182.528 40.7666 162.617 40.7666Z" fill="#28A528"/>
<g clip-path="url(#clip0)">
<path d="M284.483 158.213C282.418 158.724 280.256 158.724 278.191 158.213C267.435 155.553 258.429 156.573 258.533 176.856C258.586 187.246 268.316 200.718 278.542 198.413C280.376 198 282.297 198 284.131 198.413C294.357 200.718 304.087 187.246 304.14 176.856C304.244 156.574 295.239 155.553 284.483 158.213Z" fill="#D13834"/>
<path d="M263.533 171.674C262.98 171.674 262.533 171.226 262.533 170.674C262.533 165.16 266.57 160.674 271.533 160.674C272.086 160.674 272.533 161.122 272.533 161.674C272.533 162.226 272.086 162.674 271.533 162.674C267.674 162.674 264.533 166.263 264.533 170.674C264.533 171.226 264.085 171.674 263.533 171.674Z" fill="#F75B57"/>
<path d="M281.265 161.999C280.728 161.999 280.284 161.572 280.267 161.031C280.132 156.799 278.506 151.486 274.345 149.267C273.858 149.007 273.673 148.402 273.933 147.914C274.194 147.427 274.797 147.242 275.287 147.502C280.201 150.122 282.114 156.175 282.266 160.967C282.284 161.519 281.851 161.981 281.298 161.998C281.286 161.999 281.276 161.999 281.265 161.999Z" fill="#4C312C"/>
<path d="M281.176 165.592C279.496 165.592 277.915 164.937 276.726 163.747C276.335 163.357 276.335 162.724 276.726 162.333C277.117 161.942 277.749 161.942 278.14 162.333C278.952 163.145 280.031 163.592 281.176 163.592C282.321 163.592 283.4 163.145 284.211 162.333C284.602 161.942 285.234 161.942 285.625 162.333C286.016 162.723 286.016 163.356 285.625 163.747C284.436 164.937 282.856 165.592 281.176 165.592Z" fill="#994530"/>
<path d="M280.305 155.04L280.914 150.954C281.557 146.639 284.945 143.251 289.26 142.608L293.345 142L292.736 146.086C292.093 150.401 288.705 153.789 284.39 154.432L280.305 155.04Z" fill="#659C35"/>
</g>
<g clip-path="url(#clip1)">
<path d="M67.483 152.213C65.418 152.724 63.256 152.724 61.191 152.213C50.435 149.553 41.429 150.573 41.533 170.856C41.586 181.246 51.316 194.718 61.542 192.413C63.376 192 65.297 192 67.131 192.413C77.357 194.718 87.087 181.246 87.14 170.856C87.244 150.574 78.239 149.553 67.483 152.213Z" fill="#D13834"/>
<path d="M46.533 165.674C45.98 165.674 45.533 165.226 45.533 164.674C45.533 159.16 49.57 154.674 54.533 154.674C55.086 154.674 55.533 155.122 55.533 155.674C55.533 156.226 55.086 156.674 54.533 156.674C50.674 156.674 47.533 160.263 47.533 164.674C47.533 165.226 47.085 165.674 46.533 165.674Z" fill="#F75B57"/>
<path d="M64.265 155.999C63.728 155.999 63.284 155.572 63.267 155.031C63.132 150.799 61.506 145.486 57.345 143.267C56.858 143.007 56.673 142.402 56.933 141.914C57.194 141.427 57.797 141.242 58.287 141.502C63.201 144.122 65.114 150.175 65.266 154.967C65.284 155.519 64.851 155.981 64.298 155.998C64.286 155.999 64.276 155.999 64.265 155.999Z" fill="#4C312C"/>
<path d="M64.176 159.592C62.496 159.592 60.915 158.937 59.726 157.747C59.335 157.357 59.335 156.724 59.726 156.333C60.117 155.942 60.749 155.942 61.14 156.333C61.952 157.145 63.031 157.592 64.176 157.592C65.321 157.592 66.4 157.145 67.211 156.333C67.602 155.942 68.234 155.942 68.625 156.333C69.016 156.723 69.016 157.356 68.625 157.747C67.436 158.937 65.856 159.592 64.176 159.592Z" fill="#994530"/>
<path d="M63.305 149.04L63.914 144.954C64.557 140.639 67.945 137.251 72.26 136.608L76.345 136L75.736 140.086C75.093 144.401 71.705 147.789 67.39 148.432L63.305 149.04Z" fill="#659C35"/>
</g>
<g clip-path="url(#clip2)">
<path d="M90.483 72.213C88.418 72.724 86.256 72.724 84.191 72.213C73.435 69.553 64.429 70.573 64.533 90.856C64.586 101.246 74.316 114.718 84.542 112.413C86.376 112 88.297 112 90.131 112.413C100.357 114.718 110.087 101.246 110.14 90.856C110.244 70.574 101.239 69.553 90.483 72.213Z" fill="#D13834"/>
<path d="M69.533 85.6741C68.98 85.6741 68.533 85.2261 68.533 84.6741C68.533 79.1601 72.57 74.6741 77.533 74.6741C78.086 74.6741 78.533 75.1221 78.533 75.6741C78.533 76.2261 78.086 76.6741 77.533 76.6741C73.674 76.6741 70.533 80.2631 70.533 84.6741C70.533 85.2261 70.085 85.6741 69.533 85.6741Z" fill="#F75B57"/>
<path d="M87.265 75.9991C86.728 75.9991 86.284 75.5721 86.267 75.0311C86.132 70.7991 84.506 65.4861 80.345 63.2671C79.858 63.0071 79.673 62.4021 79.933 61.9141C80.194 61.4271 80.797 61.2421 81.287 61.5021C86.201 64.1221 88.114 70.1751 88.266 74.9671C88.284 75.5191 87.851 75.9811 87.298 75.9981C87.286 75.9991 87.276 75.9991 87.265 75.9991Z" fill="#4C312C"/>
<path d="M87.176 79.592C85.496 79.592 83.915 78.937 82.726 77.747C82.335 77.357 82.335 76.724 82.726 76.333C83.117 75.942 83.749 75.942 84.14 76.333C84.952 77.145 86.031 77.592 87.176 77.592C88.321 77.592 89.4 77.145 90.211 76.333C90.602 75.942 91.234 75.942 91.625 76.333C92.016 76.723 92.016 77.356 91.625 77.747C90.436 78.937 88.856 79.592 87.176 79.592Z" fill="#994530"/>
<path d="M86.305 69.04L86.914 64.954C87.557 60.639 90.945 57.251 95.26 56.608L99.345 56L98.736 60.086C98.093 64.401 94.705 67.789 90.39 68.432L86.305 69.04Z" fill="#659C35"/>
</g>
<g clip-path="url(#clip3)">
<path d="M251.483 78.213C249.418 78.724 247.256 78.724 245.191 78.213C234.435 75.553 225.429 76.573 225.533 96.856C225.586 107.246 235.316 120.718 245.542 118.413C247.376 118 249.297 118 251.131 118.413C261.357 120.718 271.087 107.246 271.14 96.856C271.244 76.574 262.239 75.553 251.483 78.213Z" fill="#D13834"/>
<path d="M230.533 91.6741C229.98 91.6741 229.533 91.2261 229.533 90.6741C229.533 85.1601 233.57 80.6741 238.533 80.6741C239.086 80.6741 239.533 81.1221 239.533 81.6741C239.533 82.2261 239.086 82.6741 238.533 82.6741C234.674 82.6741 231.533 86.2631 231.533 90.6741C231.533 91.2261 231.085 91.6741 230.533 91.6741Z" fill="#F75B57"/>
<path d="M248.265 81.9991C247.728 81.9991 247.284 81.5721 247.267 81.0311C247.132 76.7991 245.506 71.4861 241.345 69.2671C240.858 69.0071 240.673 68.4021 240.933 67.9141C241.194 67.4271 241.797 67.2421 242.287 67.5021C247.201 70.1221 249.114 76.1751 249.266 80.9671C249.284 81.5191 248.851 81.9811 248.298 81.9981C248.286 81.9991 248.276 81.9991 248.265 81.9991Z" fill="#4C312C"/>
<path d="M248.176 85.592C246.496 85.592 244.915 84.937 243.726 83.747C243.335 83.357 243.335 82.724 243.726 82.333C244.117 81.942 244.749 81.942 245.14 82.333C245.952 83.145 247.031 83.592 248.176 83.592C249.321 83.592 250.4 83.145 251.211 82.333C251.602 81.942 252.234 81.942 252.625 82.333C253.016 82.723 253.016 83.356 252.625 83.747C251.436 84.937 249.856 85.592 248.176 85.592Z" fill="#994530"/>
<path d="M247.305 75.04L247.914 70.954C248.557 66.639 251.945 63.251 256.26 62.608L260.345 62L259.736 66.086C259.093 70.401 255.705 73.789 251.39 74.432L247.305 75.04Z" fill="#659C35"/>
</g>
<g clip-path="url(#clip4)">
<path d="M171.483 112.213C169.418 112.724 167.256 112.724 165.191 112.213C154.435 109.553 145.429 110.573 145.533 130.856C145.586 141.246 155.316 154.718 165.542 152.413C167.376 152 169.297 152 171.131 152.413C181.357 154.718 191.087 141.246 191.14 130.856C191.244 110.574 182.239 109.553 171.483 112.213Z" fill="#D13834"/>
<path d="M150.533 125.674C149.98 125.674 149.533 125.226 149.533 124.674C149.533 119.16 153.57 114.674 158.533 114.674C159.086 114.674 159.533 115.122 159.533 115.674C159.533 116.226 159.086 116.674 158.533 116.674C154.674 116.674 151.533 120.263 151.533 124.674C151.533 125.226 151.085 125.674 150.533 125.674Z" fill="#F75B57"/>
<path d="M168.265 115.999C167.728 115.999 167.284 115.572 167.267 115.031C167.132 110.799 165.506 105.486 161.345 103.267C160.858 103.007 160.673 102.402 160.933 101.914C161.194 101.427 161.797 101.242 162.287 101.502C167.201 104.122 169.114 110.175 169.266 114.967C169.284 115.519 168.851 115.981 168.298 115.998C168.286 115.999 168.276 115.999 168.265 115.999Z" fill="#4C312C"/>
<path d="M168.176 119.592C166.496 119.592 164.915 118.937 163.726 117.747C163.335 117.357 163.335 116.724 163.726 116.333C164.117 115.942 164.749 115.942 165.14 116.333C165.952 117.145 167.031 117.592 168.176 117.592C169.321 117.592 170.4 117.145 171.211 116.333C171.602 115.942 172.234 115.942 172.625 116.333C173.016 116.723 173.016 117.356 172.625 117.747C171.436 118.937 169.856 119.592 168.176 119.592Z" fill="#994530"/>
<path d="M167.305 109.04L167.914 104.954C168.557 100.639 171.945 97.251 176.26 96.608L180.345 96L179.736 100.086C179.093 104.401 175.705 107.789 171.39 108.432L167.305 109.04Z" fill="#659C35"/>
</g>
<defs>
<clipPath id="clip0">
<rect width="56.673" height="56.673" fill="white" transform="translate(253 142)"/>
</clipPath>
<clipPath id="clip1">
<rect width="56.673" height="56.673" fill="white" transform="translate(36 136)"/>
</clipPath>
<clipPath id="clip2">
<rect width="56.673" height="56.673" fill="white" transform="translate(59 56)"/>
</clipPath>
<clipPath id="clip3">
<rect width="56.673" height="56.673" fill="white" transform="translate(220 62)"/>
</clipPath>
<clipPath id="clip4">
<rect width="56.673" height="56.673" fill="white" transform="translate(140 96)"/>
</clipPath>
</defs>
</svg>
